# xmcd CD database file
#
# Track frame offsets:
#        150
#        10095
#        22396
#        33262
#        46372
#        57957
#        71454
#        83233
#        95037
#        106120
#        118539
#        130203
#        142460
#        154341
#        166807
#        178544
#        189414
#        201240
#        212461
#        225374
#        236118
#        248528
#        260182
#        271950
#        280665
#
# Disc length: 3877 seconds
#
# Revision: 0
# Processed by: cddbd v1.5.2PL0 Copyright (c) Steve Scherf et al.
# Submitted via: CUERipper 2.1.6
#
DISCID=640f2319
DTITLE=Hank Williams - Best of the singles 1947-1958
DYEAR=2018
DGENRE=Country
TTITLE0=Honky tonk blues
TTITLE1=Half as much
TTITLE2=Let's turn back the years
TTITLE3=Jambalaya (on the Bayou)
TTITLE4=Window shopping
TTITLE5=Be careful of stones that you throw
TTITLE6=Settin' the woods on fire
TTITLE7=You win again
TTITLE8=I'll never get out of this world alive
TTITLE9=I could never be ashamed of you
TTITLE10=Kaw-liga
TTITLE11=Your cheatin' heart
TTITLE12=Take these chains from my heart
TTITLE13=I won't be home no more
TTITLE14=Weary blues from waitin'
TTITLE15=I can't escape from you
TTITLE16=Low down blues
TTITLE17=You better keep it on your mind
TTITLE18=How can you refuse him now
TTITLE19=House of gold
TTITLE20=I ain't got nothin' but time
TTITLE21=I'm satisfied with you
TTITLE22=The angel of death
TTITLE23=(I'm gonna) Sing sing sing
TTITLE24=Please don't let me love you
EXTD=
EXTT0=
EXTT1=
EXTT2=
EXTT3=
EXTT4=
EXTT5=
EXTT6=
EXTT7=
EXTT8=
EXTT9=
EXTT10=
EXTT11=
EXTT12=
EXTT13=
EXTT14=
EXTT15=
EXTT16=
EXTT17=
EXTT18=
EXTT19=
EXTT20=
EXTT21=
EXTT22=
EXTT23=
EXTT24=
PLAYORDER=
